# xmcd
#
# Track frame offsets:
#	150
#	16848
#	31728
#	48505
#	65124
#	80811
#	98059
#	112081
#	127118
#	140779
#	155663
#	169872
#	186107
#	202045
#	219751
#	237085
#	250807
#	265108
#	278462
#	291667
#	307546
#
# Disc length: 4287 seconds
#
# Revision: 1
# Processed by: cddbd v1.5.2PL0 Copyright (c) Steve Scherf et al.
# Submitted via: EZCDAudioConverter 7.0.7.1
#
DISCID=3310bd15
DTITLE=Nu Country Traxx Volume 225 US
DYEAR=2018
DGENRE=country
TTITLE0=Luke Bryan - Most People Are Good
TTITLE1=LoCash - Don't Get Better Than That
TTITLE2=Luke Combs - One Number Away
TTITLE3=Cam - Diane
TTITLE4=Brothers Osborne - Shoot Me Straight
TTITLE5=Walker McGuire - Lost
TTITLE6=Vince Youngs - My Turn
TTITLE7=Josh Gracin - Nothin' Like Us
TTITLE8=AC Jones - Buses And Trains
TTITLE9=Raleigh Keegan - Lookin' Like That
TTITLE10=Casey Donahew - Country Song
TTITLE11=Zach Stone - Four Letter Word
TTITLE12=Smithfield - Hey Whiskey
TTITLE13=Jared Blake - Don't Let Her Be Gone
TTITLE14=Alan Jackson - The Older I Get
TTITLE15=Runaway Angel - Witness
TTITLE16=Past The Perimeter - Jack And Diane Kinda Town
TTITLE17=Amy Jack - Got Lonely Too Early
TTITLE18=David James - Sun Set On It
TTITLE19=Dan Davidson - Say We Did
TTITLE20=Wes Mack - House On Fire
EXTD=
EXTT0=
EXTT1=
EXTT2=
EXTT3=
EXTT4=
EXTT5=
EXTT6=
EXTT7=
EXTT8=
EXTT9=
EXTT10=
EXTT11=
EXTT12=
EXTT13=
EXTT14=
EXTT15=
EXTT16=
EXTT17=
EXTT18=
EXTT19=
EXTT20=
PLAYORDER=
